<?xml version="1.0" encoding="iso-8859-1"?>
<!-- Uploaded to: SVG Repo, www.svgrepo.com, Generator: SVG Repo Mixer Tools -->
<svg fill="#000000" height="800px" width="800px" version="1.1" id="Layer_1" xmlns="http://www.w3.org/2000/svg" xmlns:xlink="http://www.w3.org/1999/xlink" 
	 viewBox="0 0 500.004 500.004" xml:space="preserve">
<g>
	<g>
		<path d="M179.651,11.496c-30.156,0-54.688,24.532-54.688,54.688s24.532,54.688,54.688,54.688s54.696-24.532,54.696-54.688
			C234.347,36.028,209.807,11.496,179.651,11.496z M179.651,97.424c-17.228,0-31.244-14.012-31.244-31.24
			c0-17.228,14.016-31.244,31.244-31.244c17.232,0,31.248,14.016,31.248,31.244C210.899,83.412,196.883,97.424,179.651,97.424z"/>
	</g>
</g>
<g>
	<g>
		<path d="M465.459,373.364c-31.284-53.312-81.288-92.836-140.8-111.292c-1.38-0.428-2.872-0.064-3.9,0.952
			c-27.684,27.296-62.084,48.592-70.688,53.736c-9.18-5.868-47.844-31.072-70.836-53.736c-1.024-1.016-2.524-1.38-3.9-0.952
			c-59.52,18.46-109.52,57.984-140.792,111.296c-0.716,1.22-0.716,2.736,0,3.956c44.408,75.672,126.964,122.68,215.452,122.68
			c88.492,0,171.052-47.008,215.46-122.68C466.179,376.1,466.179,374.584,465.459,373.364z M382.875,402.508
			c0,2.156-2.052,3.804-4.204,3.804h-26.46c-2.156,0-4.508,1.852-4.508,4.012v27.364c0,2.152-1.152,3.796-3.308,3.796h-23.764
			c-2.156,0-4.188-1.644-4.188-3.796v-27.364c-0.008-2.156-1.48-4.012-3.636-4.012h-27.6c-2.156,0-3.94-1.652-3.94-3.804v-23.56
			c0-2.156,1.784-3.896,3.94-3.896h27.6c2.156,0,3.628-1.76,3.628-3.92v-27.396c0-2.156,2.032-3.856,4.188-3.856h23.508
			c2.152,0,3.568,1.7,3.568,3.856v27.476c0,2.16,2.088,3.836,4.248,3.836h26.724c2.152,0,4.204,1.824,4.204,3.98V402.508z"/>
	</g>
</g>
<g>
	<g>
		<path d="M249.995,0c-27.172,0-51.772,11.16-69.5,29.12c20.064,0.456,36.256,16.888,36.256,37.064
			c0,20.46-16.64,37.104-37.1,37.104c-10.712,0-20.344-4.592-27.132-11.88c-0.124,2.084-0.212,4.184-0.212,6.304v50.62
			c0,53.876,43.82,97.708,97.696,97.708c53.88,0,97.696-43.832,97.696-97.712v-50.62C347.699,43.832,303.875,0,249.995,0z"/>
	</g>
</g>
<g>
	<g>
		<path d="M179.651,54.644c-6.36,0-11.54,5.176-11.54,11.54c0,6.364,5.18,11.54,11.54,11.54c6.368,0,11.54-5.176,11.54-11.54
			C191.191,59.82,186.019,54.644,179.651,54.644z"/>
	</g>
</g>
</svg>